<svg width="140" height="140" viewBox="0 0 140 140" fill="none" xmlns="http://www.w3.org/2000/svg">
<circle cx="70" cy="70" r="67.5" stroke="black" stroke-width="5"/>
<g clip-path="url(#clip0_49_41)">
<path d="M114.251 82.9839H127.362V65.6554H107.984C109.142 67.0539 110.187 68.8472 110.651 70.6207C111.637 73.8078 109.911 77.2582 106.792 78.3195C103.607 79.4041 100.128 77.6621 99.0877 74.3462C98.3059 71.8527 99.9053 70.8523 95.8428 69.3917C94.2734 68.8261 93.2336 67.3959 93.0588 65.8167C92.9813 65.1158 93.0684 64.4125 93.3518 63.7253C93.0701 63.7945 90.2988 64.3271 89.7998 64.3408L89.291 67.1814C85.9353 69.1347 83.6777 72.7681 83.6777 76.931V100.055C83.6777 102.386 85.5672 104.275 87.898 104.275H90.4641V111.794C90.4641 116.326 94.1383 120 98.6705 120C103.203 120 106.877 116.326 106.877 111.794V104.275H113.974V107.827C113.974 109.02 114.941 109.987 116.134 109.987H127.362V98.4154V98.4107H118.488C117.042 98.4107 115.869 97.2378 115.869 95.7912C115.869 94.3445 117.042 93.1716 118.488 93.1716H127.362V88.223H114.251C112.804 88.223 111.631 87.0502 111.631 85.6035C111.631 84.1568 112.804 82.9839 114.251 82.9839ZM98.4574 92.707C94.768 92.707 91.1051 89.598 91.1051 85.2683C91.1051 81.1914 94.41 77.8865 98.4869 77.8865C102.564 77.8865 105.869 81.1914 105.869 85.2683C105.869 89.5033 102.325 92.707 98.4574 92.707Z" fill="black"/>
<path d="M106.459 34.7301H98.0064C96.3252 34.7301 94.8851 35.935 94.5888 37.5901L94.1746 39.9035C96.2736 40.3742 97.9933 41.944 98.6476 44.1074C99.1791 45.8647 99.0035 49.1574 97.2884 52.484C97.6308 52.2869 98.0369 52.0864 99.1982 51.2471L100.912 41.6737H105.91C106.498 39.3606 106.664 36.941 106.459 34.7301Z" fill="black"/>
<path d="M118.194 34.7299C118.152 37.473 117.854 39.5246 117.375 41.6736H119.28C119.28 42.3207 119.284 43.9445 119.284 44.5058C119.284 45.648 120.21 46.5738 121.352 46.5738H127.362V40.381V34.7299H118.194Z" fill="black"/>
<path d="M47.1266 93.1063L46.9151 91.3287C43.7045 91.6582 40.3084 91.3957 37.1915 90.4733L37.4965 93.0365L29.4186 113.465C28.4485 115.919 29.6508 118.694 32.1045 119.664C34.5584 120.634 37.3334 119.431 38.3036 116.978L46.8252 95.4274C47.1167 94.6906 47.2202 93.893 47.1266 93.1063Z" fill="black"/>
<path d="M59.9998 90.8774L59.4123 86.1891C56.6885 88.3707 53.6557 89.8903 50.3518 90.7235L50.4225 91.2879L45.7512 114.27C45.2258 116.856 46.8955 119.378 49.4812 119.903C52.0654 120.429 54.5885 118.76 55.1141 116.173L59.9412 92.4229C60.0445 91.9145 60.0643 91.3924 59.9998 90.8774Z" fill="black"/>
<path d="M84.7333 61.1826C84.3551 59.9003 83.0084 59.1683 81.7266 59.5462L73.0959 62.0935C73.9108 63.4775 74.3317 65.1103 74.2274 66.807L75.3852 66.4652L74.7008 69.0986C74.3645 70.3923 75.1407 71.7138 76.4346 72.05C77.7272 72.3863 79.0495 71.6109 79.386 70.3162L80.8024 64.8664L83.0963 64.1894C84.379 63.8107 85.1118 62.4646 84.7333 61.1826Z" fill="black"/>
<path d="M46.6264 37.6945C51.3161 37.6945 55.1178 33.7335 55.1178 28.8473C55.1178 23.9611 51.3161 20 46.6264 20C41.9367 20 38.135 23.9611 38.135 28.8473C38.135 33.7335 41.9367 37.6945 46.6264 37.6945Z" fill="black"/>
<path d="M58.7355 73.3278C58.3792 73.9451 57.9834 74.5739 57.5443 75.1973C53.9359 80.3233 49.1775 82.7828 43.3976 82.5088C37.9322 82.2491 34.766 79.61 32.9339 76.5135C32.7808 76.2549 32.5298 76.069 32.2378 75.9979C31.9459 75.927 31.6371 75.9764 31.3824 76.136L29.1607 77.5278C28.6496 77.8481 28.4863 78.5155 28.7912 79.0356C31.6711 83.9502 36.4392 87.0244 43.1677 87.3444C50.6955 87.7008 57.0537 84.3848 61.5986 77.8467C62.4666 76.5979 63.1876 75.345 63.7816 74.1701L58.7355 73.3278Z" fill="black"/>
<path d="M66.8873 62.0802L52.8936 59.7447L46.5737 45.2982L55.0379 56.1404L57.4319 56.5398V46.3201C57.4319 43.0193 54.8639 40.3435 51.6959 40.3435H41.4664C38.2985 40.3435 35.778 43.0193 35.778 46.3201V73.0521C37.2186 76.5767 39.6283 78.2324 43.5914 78.4208C48.1785 78.639 51.7727 76.381 54.3807 72.6015C48.2924 71.5855 48.6426 71.65 48.3039 71.5716C44.8469 70.7726 42.8455 67.8535 42.5102 66.1041L39.268 49.1839L46.3485 65.3687C46.8094 66.4224 47.6578 67.2285 48.6901 67.6152C49.2047 67.808 47.9821 67.5718 65.5912 70.5107C67.826 70.8841 69.927 69.2974 70.2846 66.9708C70.6403 64.6568 69.1342 62.455 66.8873 62.0802Z" fill="black"/>
<path d="M114.176 29.9344C113.83 28.6135 112.522 27.8346 111.254 28.1956C110.031 28.5436 109.225 29.8629 109.59 31.2596C110.312 34.0118 110.434 38.1397 109.684 41.5979C109.065 44.1161 108.738 45.2778 107.152 48.0081C106.288 49.5504 104.296 51.7561 103.757 52.2094C99.6082 56.1139 94.7795 57.9477 89.5557 59.4112C89.1848 59.5147 89.0196 59.8463 89.0729 60.1592C89.1327 60.5098 89.4538 60.7465 89.7938 60.6838C95.3887 59.6479 100.586 58.2014 105.468 54.3483C106.102 53.8967 108.533 51.6625 109.742 49.9008C111.015 48.0993 112.109 46.3647 113.346 42.6368C114.942 37.4229 114.647 31.7385 114.176 29.9344Z" fill="black"/>
<path d="M95.1515 45.1653C94.7511 43.8414 93.3966 43.1063 92.1257 43.5235C90.9201 43.9192 90.1119 45.2651 90.5789 46.7698C90.6943 46.9032 90.8048 47.6471 90.8181 47.8282C90.99 49.0028 90.689 50.1664 90.2351 51.1633C89.4343 52.8116 88.3738 53.6106 87.1923 54.495C86.9916 54.6463 86.8945 54.9186 86.9695 55.1799C87.0642 55.51 87.3978 55.6975 87.715 55.5987C88.9845 55.2022 90.1742 54.8989 92.0251 53.3778C92.2423 53.1645 93.1578 52.2965 93.6226 51.5118C95.1097 49.1541 95.4964 46.3061 95.1515 45.1653Z" fill="black"/>
<path d="M107.137 71.6207C106.484 69.1155 104.615 67.0069 102.544 65.8524C100.365 64.716 98.7064 64.7407 97.277 64.7416C97.0291 64.7422 96.7965 64.9039 96.7109 65.1619C96.6027 65.4879 96.7688 65.8432 97.0813 65.9559L97.1484 65.9799C98.3883 66.4268 99.6533 66.8539 100.914 68.235C101.97 69.4534 102.517 70.8045 102.477 72.2877C102.474 72.3055 102.466 72.3174 102.456 72.3401C102.414 74.2416 104.095 75.3795 105.615 74.8619C106.772 74.468 107.608 73.166 107.137 71.6207Z" fill="black"/>
</g>
<defs>
<clipPath id="clip0_49_41">
<rect width="100" height="100" fill="white" transform="translate(28 20)"/>
</clipPath>
</defs>
</svg>
