<svg width="140" height="140" viewBox="0 0 140 140" fill="none" xmlns="http://www.w3.org/2000/svg">
<g clip-path="url(#clip0_52_82)">
<path d="M122.186 74.2521V64.8826L117.712 44.3687C117.283 42.4187 115.522 41.0033 113.525 41.0033H82.9493C81.3997 41.0033 79.9665 41.8431 79.2089 43.1955L78.9985 43.5711C80.4481 44.9494 81.3685 46.8775 81.4218 49.0183L83.2358 45.7789H97.5038V60.1064H81.4698C81.4698 61.576 81.4698 73.6892 81.4698 75.408C84.3194 75.6265 86.6144 78.0135 86.6144 80.9179V84.034H95.7208C95.7208 78.0424 100.607 73.206 106.549 73.206C112.492 73.206 117.377 78.0437 117.377 84.034H121.042C123.78 84.034 126 81.814 126 79.076C126 76.7314 124.372 74.7687 122.186 74.2521ZM93.4546 68.2937H88.337C87.4351 68.2937 86.7042 67.5629 86.7042 66.6609C86.7042 65.759 87.4351 65.0281 88.337 65.0281H93.4546C94.3565 65.0281 95.0874 65.7592 95.0874 66.6609C95.0874 67.5629 94.3565 68.2937 93.4546 68.2937ZM102.589 60.1064V45.7789H113.132L116.284 60.1064H102.589Z" fill="black"/>
<path d="M57.8344 64.9563L53.451 66.5381C52.7568 67.334 51.8806 67.9438 50.9072 68.3211C50.314 69.4231 49.9767 70.6834 49.9767 72.0227V74.401C48.0513 75.0819 46.6713 76.9172 46.6713 79.0758C46.6713 81.8141 48.891 84.0338 51.6293 84.0338C53.4691 84.0338 53.6879 84.0338 57.8345 84.0338C57.8345 84.0338 57.8344 67.1555 57.8344 64.9563Z" fill="black"/>
<path d="M106.549 76.4713C102.373 76.4713 98.9866 79.8571 98.9866 84.0338C98.9866 88.2106 102.372 91.5965 106.549 91.5965C110.726 91.5965 114.112 88.2108 114.112 84.0338C114.112 79.8573 110.726 76.4713 106.549 76.4713ZM106.549 87.0971C104.857 87.0971 103.486 85.7256 103.486 84.0338C103.486 82.342 104.857 80.9705 106.549 80.9705C108.241 80.9705 109.613 82.342 109.613 84.0338C109.613 85.7258 108.241 87.0971 106.549 87.0971Z" fill="black"/>
<path d="M78.2282 96.5967H70.4712L70.4841 101.117C70.4899 103.255 72.2253 104.985 74.3622 104.985C74.3659 104.985 74.3696 104.985 74.3735 104.985C76.5155 104.979 78.2472 103.237 78.2411 101.095L78.2282 96.5967Z" fill="black"/>
<path d="M64.3401 96.5965C63.0731 96.5967 61.9052 96.1672 60.9716 95.4473C60.9716 96.4344 60.9712 99.9744 60.9712 101.106C60.971 103.248 62.7073 104.985 64.8493 104.985C66.9913 104.985 68.7278 103.248 68.7278 101.106L68.728 96.5967H64.3401V96.5965Z" fill="black"/>
<path d="M49.5022 59.1965L39.7115 56.2685L34.3145 48.625L39.9447 52.9648L43.16 53.9263V49.214C43.16 46.7148 41.134 44.6888 38.6348 44.6888H30.5649C28.0658 44.6892 26 46.715 26 49.2142V101.095C25.994 103.237 27.6858 104.978 29.8278 104.984C29.8317 104.984 29.8352 104.984 29.8391 104.984C31.9758 104.984 33.7113 103.255 33.7172 101.117L33.7983 72.442C33.7983 72.4383 33.7979 72.4347 33.7979 72.431H35.4709L35.4731 101.106C35.4731 103.248 37.21 104.984 39.3518 104.984C41.494 104.984 43.1951 103.247 43.1949 101.105C43.1926 65.3756 43.1951 67.5851 43.1951 67.4203L35.8633 65.2386C34.6111 64.8642 33.0518 64.6209 32.4346 62.7738L29.0338 52.3541L35.0748 60.9097C35.4922 61.5008 36.0957 61.9347 36.7891 62.142L47.6496 65.3898C49.3586 65.9013 51.1606 64.9304 51.6725 63.2193C52.1842 61.5092 51.2123 59.7078 49.5022 59.1965Z" fill="black"/>
<path d="M34.6347 42.413C38.3344 42.413 41.3336 39.4139 41.3336 35.7142C41.3336 32.0145 38.3344 29.0154 34.6347 29.0154C30.9351 29.0154 27.9359 32.0145 27.9359 35.7142C27.9359 39.4139 30.9351 42.413 34.6347 42.413Z" fill="black"/>
<path d="M69.5663 29.0154C65.8667 29.0154 62.8674 32.0144 62.8674 35.7142C62.8674 39.4173 65.8727 42.413 69.5663 42.413C73.2596 42.413 76.2651 39.4173 76.2651 35.7142C76.2651 32.0146 73.2659 29.0154 69.5663 29.0154Z" fill="black"/>
<path d="M81.0867 78.6557H78.2476C78.2476 75.9043 78.2476 76.6764 78.2476 73.867C78.2476 72.9563 77.5095 72.2182 76.5988 72.2182H76.0855C76.4361 70.0352 77.3578 64.2965 77.7007 62.1602C77.7867 61.626 77.7369 61.0785 77.5564 60.5686L73.7296 49.7623L73.9582 50.1022L78.1617 56.3498V49.2143C78.1617 46.7153 76.1357 44.6891 73.6365 44.6891H65.5667C63.0675 44.6891 61.0416 46.7151 61.0416 49.2143V52.5961L59.4021 53.9658C56.5779 54.9989 56.5626 55.0043 51.8591 56.7244C53.8759 57.9114 55.0947 60.1129 55.0386 62.4446C58.7845 61.0746 57.4554 61.5608 61.0416 60.2492C61.0416 75.8506 60.9732 76.5383 60.9732 76.5383C61.8005 75.9006 62.8124 75.4926 63.914 75.408V73.8668C63.914 71.7955 65.2027 70.0209 67.0195 69.2987C67.5109 66.2391 67.906 63.7793 68.4058 60.6666C67.8384 54.1858 68.0107 56.1405 67.6363 51.9201L71.1878 61.9487C69.9839 69.4455 70.2283 67.9235 69.5388 72.2176H68.8287C67.9177 72.2176 67.1798 72.9559 67.1798 73.8664C67.1798 76.6781 67.1798 75.9026 67.1798 78.6551H64.3408C63.0912 78.6551 62.0781 79.6682 62.0781 80.9174V91.0682C62.0781 92.3178 63.091 93.3305 64.3408 93.3305H81.0873C82.3369 93.3305 83.3496 92.3176 83.3496 91.0682V80.9174C83.349 79.6684 82.3361 78.6557 81.0867 78.6557ZM74.9496 78.6553H70.4771V75.6903C70.9242 76.0942 71.4876 76.3793 72.1269 76.4819C73.1867 76.653 74.2291 76.2858 74.9498 75.55V78.6553H74.9496Z" fill="black"/>
</g>
<circle cx="70" cy="70" r="67.5" stroke="black" stroke-width="5"/>
<defs>
<clipPath id="clip0_52_82">
<rect width="100" height="100" fill="white" transform="translate(26 17)"/>
</clipPath>
</defs>
</svg>
