<svg width="60" height="61" viewBox="0 0 60 61" fill="none" xmlns="http://www.w3.org/2000/svg">
<path d="M39.375 18.7687H23.6249C22.1418 18.7687 20.9396 17.5664 20.9396 16.0833C20.9396 14.6002 22.1418 13.3979 23.6249 13.3979H39.375C40.8581 13.3979 42.0603 14.6002 42.0603 16.0833C42.0603 17.5664 40.8581 18.7687 39.375 18.7687ZM31.5 29.2424H23.6249C22.1549 29.2424 20.9658 28.0533 20.9658 26.5833C20.9658 25.1133 22.1549 23.9216 23.6249 23.9216H31.5C32.97 23.9216 34.1591 25.1133 34.1591 26.5833C34.1591 28.0533 32.97 29.2451 31.5 29.2451V29.2424ZM31.5393 39.6821L31.5131 39.7083L24.7406 35.6396L31.5393 39.6821Z" fill="#EC6F0E"/>
<path d="M58.625 21.4637L50 16.9767V5.55064C50 2.68108 47.75 0.333252 44.995 0.333252H15.0075C12.2575 0.333252 10.0075 2.68108 10.0075 5.55064V16.9506L1.35 21.4637C0.475 21.9333 0 22.8463 0 23.8115V55.1159C0 57.9854 2.25 60.3333 5 60.3333H55C57.75 60.3333 60 57.9854 60 55.1159V23.8115C60 22.8463 59.5 21.9333 58.625 21.4637ZM53.575 24.6985L49.995 26.9159V22.8463L53.57 24.6985H53.575ZM15.005 5.55064H44.9925V30.0463L30.0375 39.4376L30.0125 39.4637L23.5575 35.4202L15.0075 30.0724L15.005 5.55064ZM10.005 22.8202V26.9419L6.4 24.6985L10.005 22.8202ZM5 55.1159V29.8898L45.45 55.1159H5ZM34.89 42.4637L54.9725 29.8898L55 55.1159L34.89 42.4637Z" fill="#EC6F0E"/>
</svg>
