<svg width="274" height="273" viewBox="0 0 274 273" fill="none" xmlns="http://www.w3.org/2000/svg">
<circle cx="135" cy="142" r="110" fill="white" fill-opacity="0.6"/>
<path d="M145.084 112.715L141.837 116.332H92.7359L89.1823 112.715H96.2896H103.397H110.299H117.44H124.069H131.484H138.113H145.084Z" fill="url(#paint0_linear_22_75)"/>
<path d="M92.736 154.825L101.073 159.534L100.287 163.288L92.736 159.534V155.61V154.825Z" fill="url(#paint1_linear_22_75)"/>
<path d="M178.262 158.749H183.49H187.864V162.674H180.312L178.262 158.749Z" fill="url(#paint2_linear_22_75)"/>
<path d="M92.7359 154.825V155.61H85.492V133.77H92.7359L92.8384 144.758L92.8043 148.375L92.7359 154.825Z" fill="url(#paint3_linear_22_75)"/>
<path d="M122.224 158.749H156.975L156.189 163.322H123.625L122.224 158.749Z" fill="url(#paint4_linear_22_75)"/>
<path d="M131.484 144.792V148.41H127.623V144.792H131.484Z" fill="url(#paint5_linear_22_75)"/>
<path d="M92.8727 144.792H96.4605V148.41H92.8385L92.8727 144.792Z" fill="url(#paint6_linear_22_75)"/>
<path d="M145.391 111.794L141.837 116.366M142.316 105.003H145.084V112.715H138.147M138.147 112.715V105.003M138.147 112.715H131.518M92.7359 116.332H141.837L152.806 137.387L179.048 140.697C181.679 141.312 183.217 142.574 183.49 144.792H177.032M92.7359 116.332L88.8406 111.725M92.7359 116.332V133.77M183.49 158.75H178.262C174.914 154.586 172.077 153.392 167.909 153.392C163.74 153.392 160.836 154.893 156.94 158.75M183.49 158.75H187.864V162.674H180.312L178.296 158.75M183.49 158.75C183.49 158.75 183.49 154.245 183.49 151.515M122.224 158.75H156.975L156.189 163.322H123.625L122.224 158.75ZM122.224 158.75C119.046 154.62 115.903 153.085 111.563 153.085C107.258 153.085 103.841 154.859 101.073 159.534M101.073 159.534L92.7359 154.825M101.073 159.534L100.287 163.288L92.7359 159.534V155.61M92.7359 154.825V155.61M92.7359 154.825L92.8043 148.376M92.7359 155.61H85.492V133.77H92.7359M92.7359 133.77L92.8384 144.758M92.7359 105.003H89.1823V112.715H96.2896M96.2896 112.715H103.397M96.2896 112.715V105.003M127.896 98.28H138.147C140.676 99.5085 141.53 101.078 142.316 105.037H138.147H131.518M113.75 105.037C114.126 101.658 114.297 100.123 117.748 98.28H127.862L127.93 105.037M113.75 105.037H117.44H124.069H127.93M113.75 105.037H110.299H107.087M127.93 105.037H131.484M107.087 105.037V95.3111H99.9115M107.087 105.037H103.397H99.9115M99.9115 95.3111H92.7359V105.037H96.2896H99.9115M99.9115 95.3111V105.037M177.032 144.792C177.032 151.549 177.647 151.549 183.49 151.549M177.032 144.792H131.484M183.456 144.622C183.456 144.622 183.524 148.853 183.456 151.549M131.484 144.792V148.41H127.623V144.792M131.484 144.792H127.623M127.623 144.792H96.4262M110.299 137.387H120.687V123.26H110.299M110.299 137.387H99.9115V123.26H110.299M110.299 137.387V123.26M131.484 105.003V112.715H124.069M124.069 112.715V105.003M124.069 112.715H117.44M117.44 112.715V105.003M117.44 112.715H110.299M110.299 112.715V105.003M110.299 112.715H103.397M103.397 112.715V105.003M92.8726 144.792H96.4604V148.41H92.8384L92.8726 144.792ZM144.776 137.387L138.147 123.26H127.965V137.387H144.776Z" stroke="url(#paint7_linear_22_75)" stroke-width="3" stroke-linejoin="round"/>
<path fill-rule="evenodd" clip-rule="evenodd" d="M168.08 180.59C161.177 180.59 155.574 174.618 155.574 167.247C155.574 159.876 161.177 153.904 168.08 153.904C174.982 153.904 180.586 159.876 180.586 167.247C180.586 174.618 174.982 180.59 168.08 180.59ZM168.08 173.389C165.107 173.389 162.681 170.932 162.681 167.895C162.681 164.858 165.107 162.401 168.08 162.401C171.052 162.401 173.478 164.858 173.478 167.895C173.478 170.898 171.052 173.389 168.08 173.389Z" fill="url(#paint8_linear_22_75)"/>
<path d="M167.943 169.908C168.962 169.908 169.788 169.068 169.788 168.031C169.788 166.995 168.962 166.155 167.943 166.155C166.924 166.155 166.098 166.995 166.098 168.031C166.098 169.068 166.924 169.908 167.943 169.908Z" fill="url(#paint9_linear_22_75)"/>
<path fill-rule="evenodd" clip-rule="evenodd" d="M111.905 180.59C105.003 180.59 99.399 174.618 99.399 167.247C99.399 159.876 105.003 153.904 111.905 153.904C118.807 153.904 124.411 159.876 124.411 167.247C124.377 174.618 118.807 180.59 111.905 180.59ZM111.905 173.389C108.932 173.389 106.506 170.932 106.506 167.895C106.506 164.858 108.932 162.401 111.905 162.401C114.878 162.401 117.304 164.858 117.304 167.895C117.304 170.898 114.878 173.389 111.905 173.389Z" fill="url(#paint10_linear_22_75)"/>
<path d="M111.734 169.908C112.753 169.908 113.579 169.068 113.579 168.031C113.579 166.995 112.753 166.155 111.734 166.155C110.715 166.155 109.889 166.995 109.889 168.031C109.889 169.068 110.715 169.908 111.734 169.908Z" fill="url(#paint11_linear_22_75)"/>
<path d="M180.756 180.146H99.8432M93.2143 180.146H85.3553" stroke="url(#paint12_linear_22_75)" stroke-width="3" stroke-linecap="round" stroke-linejoin="round"/>
<path d="M54.4662 78.0097L74.5236 94.6969L71.0384 98.8942L54.432 85.0736L47.6664 93.1612L64.2728 106.982L60.7875 111.179L40.73 94.4921L54.4662 78.0097Z" fill="#E25303"/>
<path d="M70.765 63.2678L75.6171 60.7084L83.271 75.2115L83.4761 75.1091L85.7996 55.3508L90.0708 53.0985L102.235 76.1329L97.3488 78.6923L89.6949 64.1891L89.524 64.2915L87.1664 84.084L82.9293 86.3021L70.765 63.2678Z" fill="#E25303"/>
<path d="M134.935 56.7157C135.174 59.5481 134.867 62.0051 133.979 64.0867C133.09 66.1684 131.758 67.8064 130.015 69.0349C128.272 70.2292 126.256 70.9459 123.967 71.1506C121.643 71.3554 119.525 71.0141 117.611 70.1269C115.698 69.2396 114.092 67.8405 112.862 65.9636C111.632 64.0867 110.88 61.7321 110.607 58.8997C110.367 56.0674 110.675 53.6104 111.563 51.5287C112.452 49.4471 113.784 47.8091 115.527 46.6147C117.27 45.4204 119.286 44.7037 121.609 44.499C123.899 44.2942 126.017 44.6355 127.931 45.5227C129.878 46.41 131.45 47.775 132.714 49.686C133.91 51.5287 134.662 53.8834 134.935 56.7157ZM129.366 57.2276C129.195 55.3849 128.785 53.8834 128.136 52.6549C127.486 51.4605 126.632 50.5732 125.573 49.9931C124.514 49.4471 123.352 49.2082 122.019 49.3106C120.687 49.413 119.559 49.8566 118.636 50.6074C117.714 51.3581 117.03 52.3819 116.586 53.6786C116.142 54.9754 116.04 56.5451 116.176 58.3879C116.313 60.2306 116.757 61.7321 117.406 62.9606C118.056 64.155 118.91 65.0422 119.969 65.6224C121.028 66.1684 122.19 66.4072 123.523 66.3049C124.855 66.2025 125.983 65.7589 126.905 65.0081C127.828 64.2574 128.511 63.2336 128.956 61.9369C129.366 60.606 129.537 59.0362 129.366 57.2276Z" fill="#E25303"/>
<path d="M147.134 69.9221L155.198 45.1474L160.46 46.8536L157.145 57.0911L167.806 60.5377L171.121 50.3002L176.349 52.0065L168.285 76.7812L163.057 75.075L166.371 64.8375L155.71 61.3909L152.396 71.6284L147.134 69.9221Z" fill="#E25303"/>
<path d="M178.501 81.627L194.834 61.2885L208.536 72.2767L205.7 75.8257L196.304 68.2841L192.408 73.1299L201.122 80.0914L198.285 83.6404L189.572 76.6789L185.677 81.5587L195.142 89.1345L192.306 92.6835L178.501 81.627Z" fill="#E25303"/>
<path d="M199.618 99.5085L221.692 85.5855L227.193 94.2874C228.252 95.9595 228.833 97.5975 228.935 99.1673C229.038 100.737 228.73 102.204 227.979 103.535C227.261 104.866 226.168 105.992 224.698 106.914C223.229 107.835 221.726 108.347 220.222 108.415C218.719 108.483 217.249 108.142 215.883 107.323C214.516 106.538 213.286 105.276 212.227 103.604L208.741 98.0753L212.466 95.7206L215.507 100.498C216.088 101.385 216.703 102.034 217.386 102.409C218.07 102.785 218.787 102.955 219.505 102.887C220.256 102.819 220.974 102.58 221.726 102.102C222.443 101.624 222.99 101.078 223.366 100.464C223.742 99.8156 223.878 99.1331 223.81 98.3483C223.742 97.5634 223.434 96.7103 222.853 95.823L220.871 92.6835L202.625 104.184L199.618 99.5085Z" fill="#E25303"/>
<path d="M41.0034 183.081L38.0648 177.962L65.1954 172.843L68.7148 179.02L50.5025 199.734L47.5639 194.615L61.8126 178.986L61.7101 178.815L41.0034 183.081ZM49.7166 177.689L56.653 189.803L52.9285 191.919L45.9921 179.805L49.7166 177.689Z" fill="#2929A9"/>
<path d="M59.8991 210.824L76.813 190.998L84.7745 197.754C86.2438 198.983 87.2688 200.246 87.8839 201.508C88.4989 202.771 88.704 203.999 88.5331 205.194C88.3623 206.388 87.8839 207.446 87.0297 208.47C86.3804 209.255 85.6287 209.801 84.8086 210.108C83.9886 210.415 83.1685 210.551 82.3143 210.449C81.46 210.347 80.64 210.108 79.7857 209.664L79.6149 209.869C80.3324 210.551 80.8792 211.37 81.1867 212.326C81.5284 213.281 81.5967 214.305 81.3917 215.363C81.2208 216.421 80.7083 217.445 79.8541 218.4C78.9657 219.458 77.9064 220.175 76.6763 220.55C75.4462 220.925 74.1478 220.925 72.7127 220.55C71.2775 220.175 69.8424 219.356 68.339 218.059L59.8991 210.824ZM67.0405 210.995L70.4575 213.896C71.6192 214.885 72.6785 215.397 73.6011 215.397C74.5236 215.397 75.3095 215.022 75.9588 214.271C76.4371 213.725 76.7105 213.111 76.813 212.496C76.9155 211.848 76.813 211.2 76.5055 210.551C76.2321 209.903 75.7537 209.289 75.0703 208.708L71.5509 205.706L67.0405 210.995ZM73.9428 202.873L77.0522 205.535C77.6331 206.013 78.2139 206.354 78.829 206.525C79.444 206.695 80.0591 206.729 80.64 206.559C81.2209 206.422 81.7334 206.081 82.1776 205.535C82.7926 204.818 83.0318 204.033 82.8952 203.146C82.7585 202.293 82.2459 201.44 81.2892 200.655L78.1114 197.925L73.9428 202.873Z" fill="#2929A9"/>
<path d="M94.6153 211.2L96.2896 206.968L116.245 214.783L114.57 219.014L107.121 216.114L99.2623 236.145L94.1711 234.166L102.03 214.134L94.6153 211.2Z" fill="#2929A9"/>
<path d="M145.425 229.866C145.391 232.698 144.81 235.121 143.683 237.1C142.589 239.08 141.086 240.581 139.241 241.605C137.395 242.629 135.311 243.106 132.988 243.072C130.664 243.038 128.58 242.492 126.769 241.4C124.958 240.308 123.523 238.773 122.463 236.759C121.438 234.746 120.926 232.323 120.96 229.491C120.994 226.658 121.575 224.235 122.668 222.256C123.762 220.277 125.265 218.775 127.11 217.752C128.956 216.728 131.074 216.25 133.363 216.284C135.653 216.318 137.737 216.864 139.548 217.956C141.393 219.014 142.828 220.584 143.853 222.563C144.981 224.577 145.494 226.999 145.425 229.866ZM139.856 229.764C139.89 227.921 139.616 226.351 139.104 225.088C138.591 223.826 137.84 222.836 136.849 222.188C135.858 221.505 134.696 221.164 133.363 221.164C132.031 221.13 130.869 221.437 129.844 222.085C128.853 222.734 128.067 223.655 127.486 224.918C126.94 226.18 126.632 227.716 126.598 229.559C126.564 231.402 126.803 232.971 127.35 234.234C127.896 235.497 128.648 236.486 129.639 237.135C130.63 237.817 131.792 238.158 133.124 238.158C134.457 238.192 135.619 237.885 136.644 237.237C137.635 236.589 138.421 235.667 139.001 234.405C139.514 233.176 139.821 231.606 139.856 229.764Z" fill="#2929A9"/>
<path d="M171.872 232.289L169.856 228.433L171.633 208.197L174.948 206.49L177.715 211.814L175.734 212.838L174.64 225.634L174.743 225.805L188.479 218.707L190.529 222.631L171.872 232.289ZM185.096 230.583L182.362 225.327L181.577 223.587L173.171 207.412L177.75 205.023L189.743 228.16L185.096 230.583Z" fill="#2929A9"/>
<path d="M193.399 201.201L200.78 203.453L198.525 196.014L202.454 192.055L205.393 202.975L216.429 205.74L212.534 209.698L205.017 207.685L207.135 215.124L203.206 219.082L200.37 208.094L189.47 205.194L193.399 201.201Z" fill="#2929A9"/>
<path d="M220.256 193.523L216.395 191.544L206.042 174.106L207.75 170.761L213.115 173.491L212.124 175.471L218.685 186.493L218.855 186.595L225.86 172.809L229.79 174.822L220.256 193.523ZM230.029 184.446L224.767 181.784L223.092 180.828L206.828 172.57L209.185 167.963L232.455 179.77L230.029 184.446Z" fill="#2929A9"/>
<defs>
<linearGradient id="paint0_linear_22_75" x1="77.2986" y1="146.913" x2="139.476" y2="94.101" gradientUnits="userSpaceOnUse">
<stop stop-color="#2929A9"/>
<stop offset="1" stop-color="#FE7A00"/>
</linearGradient>
<linearGradient id="paint1_linear_22_75" x1="91.3539" y1="163.461" x2="153.531" y2="110.649" gradientUnits="userSpaceOnUse">
<stop stop-color="#2929A9"/>
<stop offset="1" stop-color="#FE7A00"/>
</linearGradient>
<linearGradient id="paint2_linear_22_75" x1="128.378" y1="207.051" x2="190.556" y2="154.238" gradientUnits="userSpaceOnUse">
<stop stop-color="#2929A9"/>
<stop offset="1" stop-color="#FE7A00"/>
</linearGradient>
<linearGradient id="paint3_linear_22_75" x1="81.1521" y1="151.45" x2="143.329" y2="98.6378" gradientUnits="userSpaceOnUse">
<stop stop-color="#2929A9"/>
<stop offset="1" stop-color="#FE7A00"/>
</linearGradient>
<linearGradient id="paint4_linear_22_75" x1="110.187" y1="185.633" x2="172.364" y2="132.821" gradientUnits="userSpaceOnUse">
<stop stop-color="#2929A9"/>
<stop offset="1" stop-color="#FE7A00"/>
</linearGradient>
<linearGradient id="paint5_linear_22_75" x1="99.0092" y1="172.473" x2="161.186" y2="119.661" gradientUnits="userSpaceOnUse">
<stop stop-color="#2929A9"/>
<stop offset="1" stop-color="#FE7A00"/>
</linearGradient>
<linearGradient id="paint6_linear_22_75" x1="84.4011" y1="155.275" x2="146.578" y2="102.463" gradientUnits="userSpaceOnUse">
<stop stop-color="#2929A9"/>
<stop offset="1" stop-color="#FE7A00"/>
</linearGradient>
<linearGradient id="paint7_linear_22_75" x1="95.0452" y1="167.697" x2="156.697" y2="114.822" gradientUnits="userSpaceOnUse">
<stop stop-color="#2929A9"/>
<stop offset="1" stop-color="#FE7A00"/>
</linearGradient>
<linearGradient id="paint8_linear_22_75" x1="109.078" y1="190.051" x2="192.936" y2="157.559" gradientUnits="userSpaceOnUse">
<stop stop-color="#2929A9"/>
<stop offset="1" stop-color="#FE7A00"/>
</linearGradient>
<linearGradient id="paint9_linear_22_75" x1="163.554" y1="170.563" x2="170.041" y2="166.802" gradientUnits="userSpaceOnUse">
<stop stop-color="#2929A9"/>
<stop offset="1" stop-color="#FE7A00"/>
</linearGradient>
<linearGradient id="paint10_linear_22_75" x1="97.7361" y1="169.166" x2="174.523" y2="158.735" gradientUnits="userSpaceOnUse">
<stop stop-color="#2929A9"/>
<stop offset="1" stop-color="#FE7A00"/>
</linearGradient>
<linearGradient id="paint11_linear_22_75" x1="109.726" y1="169.297" x2="115.878" y2="165.416" gradientUnits="userSpaceOnUse">
<stop stop-color="#2929A9"/>
<stop offset="1" stop-color="#FE7A00"/>
</linearGradient>
<linearGradient id="paint12_linear_22_75" x1="-nan" y1="-nan" x2="-nan" y2="-nan" gradientUnits="userSpaceOnUse">
<stop stop-color="#2929A9"/>
<stop offset="1" stop-color="#FE7A00"/>
</linearGradient>
</defs>
</svg>
