<svg width="118" height="118" viewBox="0 0 118 118" fill="none" xmlns="http://www.w3.org/2000/svg">
<circle cx="59" cy="59" r="59" fill="white"/>
<path d="M64.4086 43.2925L62.6675 45.2326H36.3312L34.4252 43.2925H38.2372H42.0493H45.7514H49.5818H53.1373H57.1143H60.6698H64.4086Z" fill="url(#paint0_linear_37_162)"/>
<path d="M36.3311 65.8792L40.8029 68.405L40.3814 70.4184L36.3311 68.405V66.3001V65.8792Z" fill="url(#paint1_linear_37_162)"/>
<path d="M82.2043 67.9839H85.0084H87.3543V70.0888H83.304L82.2043 67.9839Z" fill="url(#paint2_linear_37_162)"/>
<path d="M36.3312 65.8789V66.2999H32.4458V54.5857H36.3312L36.3862 60.4794L36.3678 62.4196L36.3312 65.8789Z" fill="url(#paint3_linear_37_162)"/>
<path d="M52.1476 67.9839H70.7864L70.3649 70.4365H52.899L52.1476 67.9839Z" fill="url(#paint4_linear_37_162)"/>
<path d="M57.1143 60.4978V62.438H55.0433V60.4978H57.1143Z" fill="url(#paint5_linear_37_162)"/>
<path d="M36.4044 60.4978H38.3288V62.438H36.3861L36.4044 60.4978Z" fill="url(#paint6_linear_37_162)"/>
<path d="M64.5735 42.7983L62.6675 45.251M62.924 39.1559H64.4085V43.2925H60.6881M60.6881 43.2925V39.1559M60.6881 43.2925H57.1326M36.3312 45.2327H62.6675L68.5505 56.5259L82.6258 58.3013C84.037 58.6308 84.8618 59.308 85.0084 60.4977H81.5445M36.3312 45.2327L34.2419 42.7617M36.3312 45.2327V54.5857M85.0084 67.9838H82.2043C80.4082 65.7508 78.8871 65.1102 76.6512 65.1102C74.4152 65.1102 72.8574 65.9155 70.7681 67.9838M85.0084 67.9838H87.3543V70.0887H83.304L82.2226 67.9838M85.0084 67.9838C85.0084 67.9838 85.0084 65.5678 85.0084 64.1035M52.1476 67.9838H70.7864L70.3649 70.4365H52.899L52.1476 67.9838ZM52.1476 67.9838C50.4432 65.7691 48.7571 64.9454 46.4295 64.9454C44.1203 64.9454 42.2875 65.8972 40.803 68.4048M40.803 68.4048L36.3312 65.8789M40.803 68.4048L40.3815 70.4182L36.3312 68.4048V66.2999M36.3312 65.8789V66.2999M36.3312 65.8789L36.3678 62.4196M36.3312 66.2999H32.4458V54.5857H36.3312M36.3312 54.5857L36.3862 60.4794M36.3312 39.1559H34.4251V43.2925H38.2372M38.2372 43.2925H42.0493M38.2372 43.2925V39.1559M55.1899 35.5502H60.6881C62.0443 36.2091 62.5025 37.051 62.924 39.1742H60.6881H57.1326M47.6024 39.1742C47.804 37.3622 47.8957 36.5385 49.7467 35.5502H55.1716L55.2083 39.1742M47.6024 39.1742H49.5818H53.1373H55.2083M47.6024 39.1742H45.7514H44.0286M55.2083 39.1742H57.1143M44.0286 39.1742V33.9578H40.1799M44.0286 39.1742H42.0493H40.1799M40.1799 33.9578H36.3312V39.1742H38.2372H40.1799M40.1799 33.9578V39.1742M81.5445 60.4977C81.5445 64.1218 81.8744 64.1218 85.0084 64.1218M81.5445 60.4977H57.1143M84.9901 60.4062C84.9901 60.4062 85.0267 62.6758 84.9901 64.1218M57.1143 60.4977V62.4379H55.0433V60.4977M57.1143 60.4977H55.0433M55.0433 60.4977H38.3105M45.7514 56.5259H51.3229V48.9483H45.7514M45.7514 56.5259H40.1799V48.9483H45.7514M45.7514 56.5259V48.9483M57.1143 39.1559V43.2925H53.1373M53.1373 43.2925V39.1559M53.1373 43.2925H49.5818M49.5818 43.2925V39.1559M49.5818 43.2925H45.7514M45.7514 43.2925V39.1559M45.7514 43.2925H42.0493M42.0493 43.2925V39.1559M36.4045 60.4977H38.3289V62.4379H36.3862L36.4045 60.4977ZM64.2436 56.5259L60.6881 48.9483H55.2266V56.5259H64.2436Z" stroke="url(#paint7_linear_37_162)" stroke-width="2" stroke-linejoin="round"/>
<path fill-rule="evenodd" clip-rule="evenodd" d="M76.7427 79.698C73.0406 79.698 70.0349 76.4949 70.0349 72.5414C70.0349 68.5879 73.0406 65.3848 76.7427 65.3848C80.4448 65.3848 83.4505 68.5879 83.4505 72.5414C83.4505 76.4949 80.4448 79.698 76.7427 79.698ZM76.7427 75.836C75.1482 75.836 73.847 74.5182 73.847 72.8892C73.847 71.2602 75.1482 69.9423 76.7427 69.9423C78.3372 69.9423 79.6384 71.2602 79.6384 72.8892C79.6384 74.4999 78.3372 75.836 76.7427 75.836Z" fill="url(#paint8_linear_37_162)"/>
<path d="M76.6694 73.9689C77.2159 73.9689 77.659 73.5182 77.659 72.9623C77.659 72.4063 77.2159 71.9556 76.6694 71.9556C76.1228 71.9556 75.6797 72.4063 75.6797 72.9623C75.6797 73.5182 76.1228 73.9689 76.6694 73.9689Z" fill="url(#paint9_linear_37_162)"/>
<path fill-rule="evenodd" clip-rule="evenodd" d="M46.6127 79.698C42.9106 79.698 39.9049 76.4949 39.9049 72.5414C39.9049 68.5879 42.9106 65.3848 46.6127 65.3848C50.3148 65.3848 53.3205 68.5879 53.3205 72.5414C53.3021 76.4949 50.3148 79.698 46.6127 79.698ZM46.6127 75.836C45.0182 75.836 43.717 74.5182 43.717 72.8892C43.717 71.2602 45.0182 69.9423 46.6127 69.9423C48.2072 69.9423 49.5084 71.2602 49.5084 72.8892C49.5084 74.4999 48.2072 75.836 46.6127 75.836Z" fill="url(#paint10_linear_37_162)"/>
<path d="M46.521 73.9689C47.0676 73.9689 47.5107 73.5182 47.5107 72.9623C47.5107 72.4063 47.0676 71.9556 46.521 71.9556C45.9745 71.9556 45.5314 72.4063 45.5314 72.9623C45.5314 73.5182 45.9745 73.9689 46.521 73.9689Z" fill="url(#paint11_linear_37_162)"/>
<path d="M83.5421 79.46H40.1432M36.5877 79.46H32.3724" stroke="url(#paint12_linear_37_162)" stroke-width="2" stroke-linecap="round" stroke-linejoin="round"/>
<path d="M15.8046 24.678L26.5627 33.6283L24.6933 35.8797L15.7862 28.4668L12.1574 32.8047L21.0645 40.2176L19.1951 42.4689L8.43701 33.5185L15.8046 24.678Z" fill="#E25303"/>
<path d="M24.5466 16.7708L27.1491 15.3981L31.2544 23.177L31.3644 23.1221L32.6106 12.5244L34.9015 11.3164L41.426 23.6712L38.8052 25.044L34.6999 17.265L34.6083 17.3199L33.3437 27.9359L31.0711 29.1256L24.5466 16.7708Z" fill="#E25303"/>
<path d="M58.9653 13.2566C59.0936 14.7758 58.9286 16.0936 58.4521 17.2101C57.9756 18.3266 57.2609 19.2052 56.3262 19.8641C55.3915 20.5048 54.3102 20.8891 53.0822 20.9989C51.836 21.1088 50.6997 20.9257 49.6734 20.4498C48.6471 19.974 47.7857 19.2235 47.1259 18.2168C46.4661 17.2101 46.0629 15.9472 45.9163 14.428C45.788 12.9088 45.9529 11.591 46.4295 10.4745C46.906 9.35798 47.6207 8.47942 48.5554 7.8388C49.4901 7.19818 50.5714 6.8138 51.8177 6.70398C53.0456 6.59416 54.1819 6.7772 55.2082 7.25309C56.2529 7.72897 57.0959 8.46111 57.774 9.4861C58.4155 10.4745 58.8187 11.7374 58.9653 13.2566ZM55.978 13.5312C55.8863 12.5428 55.6664 11.7374 55.3182 11.0785C54.97 10.4379 54.5118 9.96199 53.9436 9.65083C53.3755 9.35798 52.7524 9.22985 52.0376 9.28476C51.3228 9.33967 50.718 9.57762 50.2232 9.98029C49.7284 10.383 49.3618 10.9321 49.1236 11.6276C48.8853 12.3231 48.8303 13.1651 48.9036 14.1535C48.9769 15.1419 49.2152 15.9472 49.5634 16.6061C49.9116 17.2467 50.3698 17.7226 50.938 18.0338C51.5061 18.3266 52.1292 18.4548 52.844 18.3999C53.5588 18.345 54.1636 18.107 54.6584 17.7043C55.1532 17.3017 55.5198 16.7526 55.758 16.057C55.978 15.3432 56.0696 14.5012 55.978 13.5312Z" fill="#E25303"/>
<path d="M65.5081 20.3403L69.8333 7.052L72.6557 7.96717L70.8779 13.4582L76.596 15.3068L78.3738 9.81582L81.1779 10.731L76.8526 24.0193L74.0486 23.1041L75.8263 17.6131L70.1082 15.7644L68.3305 21.2554L65.5081 20.3403Z" fill="#E25303"/>
<path d="M82.3325 26.6183L91.0929 15.7095L98.4422 21.6032L96.921 23.5067L91.881 19.4617L89.7917 22.0608L94.4652 25.7946L92.944 27.6982L88.2705 23.9643L86.1812 26.5817L91.2579 30.6451L89.7367 32.5486L82.3325 26.6183Z" fill="#E25303"/>
<path d="M93.6588 36.2092L105.498 28.7415L108.449 33.4088C109.017 34.3057 109.329 35.1843 109.384 36.0262C109.439 36.8682 109.274 37.6552 108.87 38.369C108.486 39.0829 107.899 39.6869 107.111 40.1811C106.323 40.6753 105.517 40.9498 104.71 40.9864C103.904 41.023 103.116 40.84 102.383 40.4007C101.649 39.9797 100.99 39.3025 100.422 38.4057L98.5522 35.4405L100.55 34.1776L102.181 36.74C102.493 37.2159 102.822 37.5637 103.189 37.765C103.556 37.9664 103.94 38.0579 104.325 38.0213C104.728 37.9847 105.113 37.8566 105.517 37.6003C105.901 37.3441 106.195 37.0512 106.396 36.7217C106.598 36.374 106.671 36.0079 106.635 35.5869C106.598 35.166 106.433 34.7084 106.121 34.2325L105.058 32.5486L95.2716 38.7168L93.6588 36.2092Z" fill="#E25303"/>
<path d="M8.58359 81.034L7.00745 78.2885L21.5593 75.543L23.447 78.8559L13.6786 89.9661L12.1024 87.2205L19.7449 78.8376L19.6899 78.7461L8.58359 81.034ZM13.257 78.1421L16.9775 84.6398L14.9798 85.7746L11.2594 79.2769L13.257 78.1421Z" fill="#2929A9"/>
<path d="M18.7186 95.9148L27.7906 85.2805L32.0609 88.9046C32.8489 89.5635 33.3988 90.2407 33.7287 90.918C34.0585 91.5952 34.1685 92.2541 34.0769 92.8947C33.9852 93.5354 33.7287 94.1028 33.2705 94.6519C32.9223 95.0728 32.5191 95.3657 32.0792 95.5304C31.6393 95.6952 31.1995 95.7684 30.7413 95.7135C30.2831 95.6586 29.8433 95.5304 29.3851 95.2925L29.2935 95.4023C29.6783 95.7684 29.9716 96.2077 30.1365 96.7201C30.3198 97.2326 30.3564 97.7817 30.2465 98.3491C30.1548 98.9166 29.8799 99.4657 29.4217 99.9782C28.9452 100.546 28.3771 100.93 27.7173 101.131C27.0575 101.333 26.3611 101.333 25.5913 101.131C24.8216 100.93 24.0519 100.491 23.2455 99.7951L18.7186 95.9148ZM22.549 96.0063L24.3817 97.5621C25.0049 98.0929 25.573 98.3675 26.0679 98.3675C26.5627 98.3675 26.9842 98.1661 27.3324 97.7634C27.589 97.4706 27.7356 97.1411 27.7906 96.8117C27.8456 96.4639 27.7906 96.1161 27.6257 95.7684C27.4791 95.4206 27.2225 95.0911 26.8559 94.78L24.9682 93.1693L22.549 96.0063ZM26.2511 91.6501L27.9189 93.0778C28.2305 93.334 28.542 93.5171 28.8719 93.6086C29.2018 93.7001 29.5317 93.7184 29.8433 93.6269C30.1548 93.5537 30.4297 93.3706 30.668 93.0778C30.9979 92.6934 31.1262 92.2724 31.0529 91.7965C30.9796 91.3389 30.7047 90.8814 30.1915 90.4604L28.4871 88.9961L26.2511 91.6501Z" fill="#2929A9"/>
<path d="M37.3391 96.1161L38.2371 93.8464L48.9402 98.0379L48.0422 100.308L44.0469 98.7517L39.8316 109.496L37.1008 108.434L41.3161 97.6902L37.3391 96.1161Z" fill="#2929A9"/>
<path d="M64.5918 106.128C64.5735 107.647 64.2619 108.947 63.6571 110.009C63.0706 111.07 62.2642 111.875 61.2746 112.425C60.2849 112.974 59.1669 113.23 57.9207 113.212C56.6744 113.193 55.5565 112.9 54.5851 112.315C53.6138 111.729 52.844 110.905 52.2759 109.825C51.7261 108.746 51.4512 107.446 51.4695 105.927C51.4878 104.408 51.7994 103.108 52.3859 102.047C52.9723 100.985 53.7787 100.18 54.7684 99.6305C55.7581 99.0814 56.8944 98.8251 58.1223 98.8434C59.3502 98.8617 60.4682 99.1546 61.4395 99.7403C62.4292 100.308 63.1989 101.15 63.7487 102.211C64.3535 103.291 64.6285 104.591 64.5918 106.128ZM61.6045 106.073C61.6228 105.085 61.4762 104.243 61.2013 103.566C60.9264 102.888 60.5232 102.358 59.9917 102.01C59.4602 101.644 58.837 101.461 58.1223 101.461C57.4075 101.443 56.7844 101.607 56.2346 101.955C55.7031 102.303 55.2816 102.797 54.97 103.474C54.6768 104.151 54.5118 104.975 54.4935 105.963C54.4752 106.952 54.6035 107.794 54.8967 108.471C55.1899 109.148 55.5931 109.679 56.1246 110.027C56.6561 110.393 57.2792 110.576 57.994 110.576C58.7088 110.594 59.3319 110.43 59.8817 110.082C60.4132 109.734 60.8347 109.24 61.1463 108.563C61.4212 107.904 61.5861 107.062 61.6045 106.073Z" fill="#2929A9"/>
<path d="M78.7771 107.428L77.6958 105.359L78.6488 94.5054L80.4266 93.5903L81.9111 96.4456L80.8481 96.9947L80.2616 103.858L80.3166 103.95L87.6842 100.143L88.7838 102.248L78.7771 107.428ZM85.8698 106.512L84.4036 103.694L83.9821 102.76L79.4735 94.0845L81.9294 92.8032L88.3623 105.213L85.8698 106.512Z" fill="#2929A9"/>
<path d="M90.3232 90.7532L94.2819 91.9612L93.0723 87.9711L95.1799 85.8479L96.7561 91.705L102.676 93.1876L100.586 95.3108L96.5545 94.2309L97.6908 98.221L95.5831 100.344L94.062 94.4505L88.2156 92.8947L90.3232 90.7532Z" fill="#2929A9"/>
<path d="M104.728 86.635L102.657 85.5734L97.1042 76.2204L98.0206 74.4267L100.898 75.8909L100.366 76.9525L103.885 82.8645L103.977 82.9194L107.734 75.5249L109.842 76.6048L104.728 86.635ZM109.97 81.7663L107.148 80.3387L106.25 79.8262L97.5258 75.3967L98.7904 72.9258L111.271 79.2588L109.97 81.7663Z" fill="#2929A9"/>
<defs>
<linearGradient id="paint0_linear_37_162" x1="28.0512" y1="61.6352" x2="61.4008" y2="33.3087" gradientUnits="userSpaceOnUse">
<stop stop-color="#2929A9"/>
<stop offset="1" stop-color="#FE7A00"/>
</linearGradient>
<linearGradient id="paint1_linear_37_162" x1="35.5898" y1="70.5111" x2="68.9394" y2="42.1845" gradientUnits="userSpaceOnUse">
<stop stop-color="#2929A9"/>
<stop offset="1" stop-color="#FE7A00"/>
</linearGradient>
<linearGradient id="paint2_linear_37_162" x1="55.4484" y1="93.8908" x2="88.7981" y2="65.5643" gradientUnits="userSpaceOnUse">
<stop stop-color="#2929A9"/>
<stop offset="1" stop-color="#FE7A00"/>
</linearGradient>
<linearGradient id="paint3_linear_37_162" x1="30.1181" y1="64.0686" x2="63.4677" y2="35.7421" gradientUnits="userSpaceOnUse">
<stop stop-color="#2929A9"/>
<stop offset="1" stop-color="#FE7A00"/>
</linearGradient>
<linearGradient id="paint4_linear_37_162" x1="45.691" y1="82.4032" x2="79.0406" y2="54.0766" gradientUnits="userSpaceOnUse">
<stop stop-color="#2929A9"/>
<stop offset="1" stop-color="#FE7A00"/>
</linearGradient>
<linearGradient id="paint5_linear_37_162" x1="39.6959" y1="75.345" x2="73.0455" y2="47.0184" gradientUnits="userSpaceOnUse">
<stop stop-color="#2929A9"/>
<stop offset="1" stop-color="#FE7A00"/>
</linearGradient>
<linearGradient id="paint6_linear_37_162" x1="31.8606" y1="66.1203" x2="65.2102" y2="37.7938" gradientUnits="userSpaceOnUse">
<stop stop-color="#2929A9"/>
<stop offset="1" stop-color="#FE7A00"/>
</linearGradient>
<linearGradient id="paint7_linear_37_162" x1="37.5698" y1="72.7828" x2="70.6376" y2="44.4229" gradientUnits="userSpaceOnUse">
<stop stop-color="#2929A9"/>
<stop offset="1" stop-color="#FE7A00"/>
</linearGradient>
<linearGradient id="paint8_linear_37_162" x1="45.0965" y1="84.7729" x2="90.0746" y2="67.3452" gradientUnits="userSpaceOnUse">
<stop stop-color="#2929A9"/>
<stop offset="1" stop-color="#FE7A00"/>
</linearGradient>
<linearGradient id="paint9_linear_37_162" x1="74.315" y1="74.3202" x2="77.7949" y2="72.3029" gradientUnits="userSpaceOnUse">
<stop stop-color="#2929A9"/>
<stop offset="1" stop-color="#FE7A00"/>
</linearGradient>
<linearGradient id="paint10_linear_37_162" x1="39.013" y1="73.5707" x2="80.1987" y2="67.976" gradientUnits="userSpaceOnUse">
<stop stop-color="#2929A9"/>
<stop offset="1" stop-color="#FE7A00"/>
</linearGradient>
<linearGradient id="paint11_linear_37_162" x1="45.4439" y1="73.6411" x2="48.7437" y2="71.5596" gradientUnits="userSpaceOnUse">
<stop stop-color="#2929A9"/>
<stop offset="1" stop-color="#FE7A00"/>
</linearGradient>
<linearGradient id="paint12_linear_37_162" x1="-nan" y1="-nan" x2="-nan" y2="-nan" gradientUnits="userSpaceOnUse">
<stop stop-color="#2929A9"/>
<stop offset="1" stop-color="#FE7A00"/>
</linearGradient>
</defs>
</svg>
