<svg width="140" height="144" viewBox="0 0 140 144" fill="none" xmlns="http://www.w3.org/2000/svg">
<path d="M137.5 71.5909C137.5 109.802 107.227 140.682 70 140.682C32.7734 140.682 2.5 109.802 2.5 71.5909C2.5 33.3798 32.7734 2.5 70 2.5C107.227 2.5 137.5 33.3798 137.5 71.5909Z" stroke="black" stroke-width="5"/>
<path d="M71.7397 21.4878C71.5503 21.4861 71.4304 21.5004 71.3369 21.5161L64.6011 33.5864C64.6753 33.7859 64.8769 34.1824 65.2585 34.6643C66.0862 35.7085 67.6238 37.0476 69.5237 38.1821C71.4231 39.3167 73.3127 40.0249 74.6008 40.2441C75.1946 40.3451 75.6274 40.3274 75.832 40.2938L77.5386 37.2365C77.4609 37.1979 77.3835 37.1595 77.3076 37.1143C75.6572 36.1285 75.0918 33.9445 76.0447 32.2372C76.9973 30.5298 79.1077 29.9453 80.758 30.9314C80.8337 30.9763 80.9045 31.0268 80.9761 31.0771L82.5679 28.2246C82.4939 28.0251 82.292 27.628 81.9101 27.1461C81.0825 26.1023 79.5449 24.7631 77.645 23.6286C75.7456 22.4935 73.8559 21.7856 72.5683 21.5664C72.2466 21.5116 71.9636 21.4903 71.7397 21.4878ZM56.9204 33.7465C56.6672 33.743 56.4175 33.7455 56.1714 33.7541C52.2334 33.8854 49.4062 35.3294 47.821 38.1697C47.7536 38.2905 47.6433 38.6453 47.9841 39.5909C48.3252 40.5366 49.1169 41.8666 50.3176 43.3088C52.7192 46.1931 56.706 49.549 61.5613 52.4487C66.4167 55.3487 71.2195 57.2425 74.8347 57.9522C76.6423 58.3076 78.1518 58.3513 79.1138 58.1838C80.0757 58.0164 80.3174 57.7405 80.3845 57.6201V57.6196C81.8391 55.0141 81.6604 51.7062 79.8162 48.0523C79.2458 46.9223 78.5134 45.7809 77.6355 44.6603C77.3779 44.7663 77.1186 44.8472 76.8674 44.9027C75.8713 45.125 74.8889 45.077 73.8596 44.9017C71.8022 44.5511 69.5351 43.6396 67.2424 42.2705C64.9495 40.901 63.053 39.3255 61.7307 37.657C61.0696 36.8228 60.5373 35.9666 60.2253 34.9631C60.1374 34.6813 60.0735 34.3741 60.0354 34.0549C58.9556 33.8637 57.9114 33.7599 56.9209 33.7468L56.9204 33.7465ZM80.6582 34.9634L127.925 99.5998V41.072L80.6577 34.9631L80.6582 34.9634ZM44.8198 43.5467L17.4053 92.6698L17.4035 92.6728C17.279 92.8981 17.1838 93.3055 17.5095 94.2673C17.8367 95.2331 18.6111 96.5733 19.8008 98.0235C22.1797 100.924 26.1621 104.279 31.0173 107.179C35.8725 110.078 40.6731 111.969 44.29 112.65C46.0991 112.991 47.6079 113.014 48.5796 112.825C49.5513 112.635 49.8432 112.345 49.9687 112.12L49.9692 112.12L77.3845 62.9965C76.3113 62.9657 75.1799 62.8248 73.9836 62.5899C69.6584 61.7412 64.508 59.6593 59.28 56.5368C54.0515 53.4143 49.7341 49.8407 46.8606 46.3901C46.0659 45.4359 45.3821 44.4928 44.8198 43.5467ZM52.9936 59.9071C54.2163 59.9298 55.3525 60.2304 56.3598 60.832V60.83C59.9414 62.9692 61.1474 68.4752 59.9389 75.0956C59.3371 70.8989 57.2705 67.2465 53.9014 65.2353C50.5322 63.2248 46.4421 63.1986 42.6284 64.7579C46.1775 61.6001 49.8684 59.848 52.9936 59.9071ZM30.0591 86.6243C30.5522 91.0615 32.6152 94.9727 36.1338 97.0751C39.7104 99.2093 44.1206 99.0939 48.1357 97.231V97.2325C42.874 102.385 37.1316 104.493 33.2785 102.192C29.4577 99.9102 28.4372 93.8339 30.0591 86.6248V86.6243ZM14.3088 98.2172L12.3313 101.761C12.206 101.985 12.1091 102.392 12.4363 103.357C12.7634 104.323 13.5373 105.663 14.7268 107.113C17.1047 110.012 21.0852 113.366 25.9377 116.265L25.9436 116.269H25.9441C30.7993 119.168 35.5993 121.059 39.2168 121.74C41.0254 122.081 42.5347 122.104 43.5063 121.914C44.478 121.725 44.7702 121.434 44.8955 121.21L46.873 117.667C45.7969 117.648 44.6648 117.519 43.4722 117.294C39.1167 116.474 33.9636 114.389 28.7353 111.266C23.5076 108.143 19.1855 104.569 16.3213 101.077C15.5368 100.121 14.862 99.1725 14.3088 98.2172Z" fill="black"/>
</svg>
