<svg width="35" height="34" viewBox="0 0 35 34" fill="none" xmlns="http://www.w3.org/2000/svg">
<path d="M27.4394 16.2199L27.4956 14.6657H25.9404H21.4302V2.06705H33.5V14.6931C33.5 17.4128 33.2328 19.8763 32.7206 22.0232C32.1959 24.2187 31.4018 26.0913 30.3859 27.6136C29.346 29.1707 28.0621 30.3655 26.5767 31.1944C25.1233 32.0024 23.4029 32.4381 21.4302 32.4475V26.509C23.4842 26.485 25.01 25.3245 25.9651 23.478C26.881 21.7072 27.3304 19.2326 27.4394 16.2199ZM7.44449 16.2194L7.50021 14.6657H5.94545H1.5V2.06705H13.5698V14.6942C13.5698 17.4127 13.3034 19.876 12.7921 22.0217C12.2672 24.2186 11.4735 26.0909 10.4561 27.6126L10.4556 27.6133C9.41541 29.1711 8.13207 30.3659 6.64586 31.1947C5.19293 32.0023 3.4721 32.438 1.5 32.4475V26.5089C3.54479 26.4842 5.05271 25.3117 5.99178 23.4703C6.89357 21.702 7.33651 19.2304 7.44449 16.2194Z" stroke="#2929A9" stroke-width="3"/>
</svg>
