<svg width="35" height="35" viewBox="0 0 35 35" fill="none" xmlns="http://www.w3.org/2000/svg">
<path d="M7.50409 20.1568L7.56044 18.6025C7.66967 15.5898 8.11905 13.115 9.03491 11.3442C9.98999 9.49758 11.5158 8.33691 13.5702 8.31292V2.37522C11.5964 2.3847 9.87696 2.81991 8.42433 3.62839C6.93922 4.45559 5.65519 5.65185 4.61345 7.20873C3.59758 8.73131 2.80389 10.6048 2.27952 12.7989L7.50409 20.1568ZM7.50409 20.1568H9.05946M7.50409 20.1568H9.05946M9.05946 20.1568H13.5702M9.05946 20.1568H13.5702M23.2969 6.3755C24.4609 4.63545 25.9173 3.26909 27.6256 2.31771C29.3448 1.36064 31.3444 0.875061 33.5669 0.875061C34.3587 0.875061 35.0009 1.53427 35 2.34668V8.33982C35 9.15287 34.3578 9.81238 33.5662 9.81238C31.0281 9.81238 29.5448 12.28 29.1419 17.1566L30.5537 18.7103C30.5544 18.6924 30.555 18.6745 30.5557 18.6566H33.5662C34.3578 18.6566 35 19.3154 35 20.1294V32.7839C35 33.5969 34.3578 34.2555 33.5662 34.2555H21.3648C20.5731 34.2555 19.9308 33.5969 19.9308 32.7839V20.1294C19.9308 17.3153 20.2061 14.7332 20.7503 12.4525M23.2969 6.3755C22.1657 8.0706 21.3096 10.1137 20.7503 12.4525M23.2969 6.3755L24.5437 7.20949M23.2969 6.3755L24.5437 7.20949M20.7503 12.4525L22.2092 12.8014M20.7503 12.4525L22.2094 12.8007C22.2093 12.8009 22.2093 12.8011 22.2092 12.8014M22.2092 12.8014C22.7343 10.6053 23.5273 8.73288 24.5437 7.20949M22.2092 12.8014C21.6971 14.9477 21.4308 17.4101 21.4308 20.1294V32.7555M24.5437 7.20949L24.5446 7.20816C25.5862 5.65152 26.8701 4.45542 28.3552 3.62831L27.6256 2.31774L28.3554 3.62821C29.8074 2.81991 31.5273 2.38484 33.5 2.37522M21.4308 32.7555H21.3648C21.3769 32.7555 21.3912 32.7584 21.4039 32.7639C21.4154 32.7689 21.422 32.7744 21.425 32.7776C21.4275 32.7801 21.4289 32.7822 21.4297 32.7839C21.4299 32.7843 21.4301 32.7847 21.4303 32.7851C21.4305 32.7857 21.4307 32.7862 21.4308 32.7865C21.4312 32.7878 21.4308 32.7873 21.4308 32.7839V32.7555ZM21.4308 32.7555H33.5M33.5 32.7555V32.7839C33.5 32.7883 33.4994 32.7879 33.5005 32.7852C33.5006 32.7848 33.5008 32.7844 33.5011 32.7839C33.5019 32.7822 33.5033 32.7801 33.5057 32.7777C33.5088 32.7745 33.5154 32.7689 33.527 32.7639C33.5397 32.7584 33.5541 32.7555 33.5662 32.7555H33.5ZM33.5 32.7555V20.1566M33.5 20.1566H33.5662C33.554 20.1566 33.5396 20.1538 33.5268 20.1482C33.5151 20.1431 33.5085 20.1375 33.5054 20.1344C33.504 20.1329 33.5029 20.1316 33.5022 20.1304C33.5019 20.1301 33.5017 20.1297 33.5015 20.1294C33.5009 20.1285 33.5006 20.1277 33.5003 20.1271C33.4993 20.1245 33.5 20.1245 33.5 20.1294V20.1566ZM33.5 20.1566H29.0547H27.5001L27.5557 18.603C27.6634 15.5919 28.1063 13.1202 29.0081 11.3517C29.9471 9.51021 31.4551 8.33753 33.5 8.31278M33.5 8.31278V8.33982C33.5 8.34168 33.4999 8.34272 33.4998 8.34312C33.4997 8.34367 33.4998 8.34298 33.5004 8.34154C33.5006 8.34104 33.5008 8.34047 33.5012 8.33982C33.502 8.3384 33.5032 8.33663 33.5053 8.33455C33.5082 8.33151 33.5147 8.32596 33.5264 8.32089C33.5392 8.31533 33.5538 8.31238 33.5662 8.31238C33.544 8.31238 33.522 8.31252 33.5 8.31278ZM33.5 8.31278V2.37522M33.5 2.37522C33.5223 2.37512 33.5446 2.37506 33.5669 2.37506C33.5547 2.37506 33.5403 2.37216 33.5275 2.36662C33.5159 2.36157 33.5093 2.35599 33.5062 2.35278C33.5039 2.35046 33.5025 2.34841 33.5016 2.34668C33.5012 2.34607 33.501 2.3455 33.5007 2.34497C33.5007 2.34493 33.5007 2.34489 33.5007 2.34485C33.5001 2.34346 33.4999 2.34255 33.4999 2.34237C33.4999 2.34216 33.5 2.3429 33.5 2.34497V2.34668V2.37522ZM13.5702 20.1568V32.7556H1.5V20.1295C1.5 17.4105 1.76719 14.9462 2.27941 12.7994L13.5702 20.1568Z" stroke="#2929A9" stroke-width="3"/>
</svg>
