<svg width="64" height="64" viewBox="0 0 64 64" fill="none" xmlns="http://www.w3.org/2000/svg">
<path d="M23.6743 6.19073C22.6619 3.65967 20.2106 2 17.4846 2H8.31562C4.82759 2 2 4.827 2 8.3151C2 37.964 26.0353 62 55.6835 62C59.1714 62 61.9983 59.172 61.9983 55.684L62 46.5133C62 43.787 60.3407 41.3363 57.8098 40.3237L49.0217 36.8097C46.7484 35.9003 44.1598 36.3097 42.2785 37.8773L40.0106 39.769C37.362 41.9763 33.4645 41.8007 31.0265 39.3627L24.6401 32.9703C22.2021 30.532 22.0219 26.6377 24.2292 23.9889L26.1203 21.721C27.688 19.8398 28.1009 17.2505 27.1916 14.977L23.6743 6.19073Z" stroke="#EC6F0E" stroke-width="3" stroke-linecap="round" stroke-linejoin="round"/>
</svg>
