<svg width="46" height="46" viewBox="0 0 46 46" fill="none" xmlns="http://www.w3.org/2000/svg">
<path d="M23 0C18.4512 0 14.0042 1.34892 10.2219 3.87619C6.43957 6.40345 3.4916 9.99556 1.75079 14.1983C0.00997489 18.4008 -0.445512 23.0256 0.441943 27.487C1.3294 31.9487 3.51995 36.0467 6.73656 39.2636C9.95316 42.4801 14.0514 44.6706 18.513 45.5581C22.9744 46.4456 27.5991 45.9899 31.8018 44.2491C36.0045 42.5083 39.5965 39.5605 42.1239 35.7782C44.6511 31.9958 46 27.5491 46 23C46 16.9 43.5767 11.0499 39.2636 6.73655C34.9502 2.42319 29.0999 0 23 0ZM34.2988 15.755L30.5325 33.5512C30.245 34.8162 29.4975 35.1037 28.4338 34.5287L22.6838 30.2737L19.8088 32.9475C19.6733 33.1243 19.4994 33.268 19.3002 33.3678C19.1009 33.4673 18.8816 33.5202 18.6587 33.5225L19.0613 27.7725L29.6987 18.1412C30.1875 17.7387 29.6987 17.5087 29.0088 17.9112L15.9563 26.105L10.2062 24.3225C8.97 23.9487 8.94125 23.0862 10.465 22.5112L32.6313 13.8862C33.7238 13.57 34.6437 14.2025 34.2988 15.755Z" fill="#EC6F0E"/>
</svg>
