<svg width="46" height="46" viewBox="0 0 46 46" fill="none" xmlns="http://www.w3.org/2000/svg">
<path d="M23 0C10.2979 0 0 10.2974 0 23C0 35.7026 10.2979 46 23 46C35.7021 46 46 35.7026 46 23C46 10.2974 35.7021 0 23 0ZM34.6668 25.4875C35.7388 26.5346 36.873 27.52 37.8353 28.6753C38.2617 29.1864 38.6635 29.7148 38.9694 30.3092C39.4061 31.1567 39.0118 32.0861 38.2532 32.1365L33.5412 32.1355C32.3242 32.2362 31.3558 31.7454 30.5393 30.9134C29.8875 30.2504 29.2828 29.5421 28.6551 28.8565C28.3986 28.5751 28.1285 28.3101 27.8066 28.1017C27.1642 27.6838 26.6061 27.8118 26.2381 28.4828C25.8631 29.1657 25.7774 29.9224 25.7417 30.6824C25.6904 31.7934 25.3553 32.0838 24.2405 32.136C21.8584 32.2475 19.5981 31.8861 17.4974 30.6852C15.6442 29.6259 14.2099 28.1308 12.96 26.4381C10.5261 23.1384 8.66212 19.5167 6.9873 15.7911C6.61035 14.952 6.88612 14.5031 7.81177 14.4857C9.34965 14.456 10.8875 14.4598 12.4254 14.4842C13.0513 14.4941 13.4654 14.8522 13.7059 15.4428C14.5369 17.4875 15.5558 19.4329 16.8325 21.2372C17.1727 21.7177 17.52 22.1967 18.0146 22.536C18.5605 22.9106 18.9765 22.7868 19.2339 22.1774C19.3986 21.7901 19.4697 21.376 19.5054 20.9609C19.6278 19.5393 19.6424 18.1181 19.4306 16.7021C19.2988 15.816 18.8005 15.2438 17.9172 15.0762C17.4673 14.9911 17.5332 14.8245 17.752 14.5675C18.1318 14.1233 18.4875 13.8485 19.1986 13.8485L24.5224 13.8475C25.3614 14.0122 25.5497 14.3887 25.6635 15.2339L25.6682 21.1501C25.6584 21.4772 25.8325 22.4466 26.4198 22.6607C26.8904 22.816 27.2009 22.4386 27.4824 22.1407C28.7591 20.7859 29.6687 19.1868 30.4833 17.5318C30.8428 16.8019 31.1529 16.0466 31.4541 15.2899C31.6781 14.7304 32.0264 14.4551 32.6579 14.4645L37.7845 14.4706C37.9355 14.4706 38.089 14.472 38.2386 14.4979C39.1026 14.6457 39.3393 15.0174 39.072 15.8602C38.6513 17.1845 37.8339 18.2875 37.0348 19.3934C36.1784 20.5774 35.2649 21.72 34.417 22.9092C33.6377 23.9962 33.6993 24.5435 34.6668 25.4875Z" fill="#EC6F0E"/>
</svg>
